<?xml version="1.0" encoding="utf-8"?>
<!-- Generator: Adobe Illustrator 19.2.0, SVG Export Plug-In . SVG Version: 6.00 Build 0)  -->
<svg version="1.1" id="Layer_1" xmlns="http://www.w3.org/2000/svg" xmlns:xlink="http://www.w3.org/1999/xlink" x="0px" y="0px"
	 viewBox="0 0 223 80" style="enable-background:new 0 0 223 80;" xml:space="preserve">
<style type="text/css">
	.st0{fill:#FFFFFF;}
	.st1{opacity:0.2;enable-background:new    ;}
	.st2{fill:#00C775;}
	.st3{opacity:0.5;enable-background:new    ;}
	.st4{fill:#06A771;}
	.st5{opacity:0.4;enable-background:new    ;}
	.st6{enable-background:new    ;}
</style>
<title>Logo + intro text</title>
<desc>Created with Sketch.</desc>
<g id="_x33_60Stories-web">
	<g id="Landing-step-1-Ipad-768px" transform="translate(-86.000000, -327.000000)">
		<g id="Stage-1" transform="translate(84.000000, 327.000000)">
			<g id="Logo-_x2B_-intro-text" transform="translate(2.000000, 0.000000)">
				<g id="Logo">
					<g id="Oval-15">
						<ellipse class="st0" cx="42" cy="41.7" rx="42" ry="38.3"/>
					</g>
					<g id="Oval-1054">
						<ellipse class="st0" cx="42.4" cy="18.7" rx="18.7" ry="18.7"/>
					</g>
					<g id="_x33_60Logo" transform="translate(4.242424, 4.255319)">
						<g id="Oval-1" class="st1">
							<path class="st2" d="M68.4,59.4c4.7-6.3,7.5-14,7.5-22.5c0-20.8-17-32.6-38-32.6S0,16.1,0,36.9c0,8.4,2.8,16.2,7.5,22.5
								c-1.1-2-1.6-4-1.6-5.8c0-8.8,14.4-15.9,32.1-15.9s32.1,7.1,32.1,15.9C70.1,55.4,69.5,57.4,68.4,59.4z"/>
						</g>
						<g id="Oval-1_1_" class="st3">
							<path class="st2" d="M75.6,32.2c0.2,1.5,0.3,3.1,0.3,4.7c0,8.4-2.8,16.2-7.5,22.5c1.1-2,1.6-4,1.6-5.8
								c0-8.8-14.4-15.9-32.1-15.9S5.8,44.8,5.8,53.6c0,1.8,0.6,3.7,1.6,5.8c-3-4-5.3-8.7-6.5-13.8l3.4,0L5.1,29l10.2,8l1.5-12.3
								l7.3,7.2L38,21.7l7.3,7.2l16.8,8L75.6,32.2z M10.6,26.1c1.8,0,3.3-1.5,3.3-3.3c0-1.8-1.5-3.3-3.3-3.3S7.3,21,7.3,22.8
								C7.3,24.6,8.8,26.1,10.6,26.1z M63.5,20.1c-0.3-0.1-0.7-0.1-1.1,0.1c0.2-1.2-0.6-2.3-1.7-2.5c-1.1-0.2-2.1,0.4-2.5,1.4
								c-0.1,0-0.1,0-0.2,0c-0.5-0.1-1.1,0-1.6,0.3c-0.5,0.3-0.8,0.8-0.9,1.4c-0.1,0.5,0,1.1,0.3,1.6c0.3,0.5,0.8,0.8,1.4,0.9
								l5.4,1.1c0.6,0.1,1.2,0,1.6-0.3c0.5-0.3,0.8-0.8,0.9-1.4c0.1-0.5,0-1.1-0.3-1.6C64.5,20.6,64,20.2,63.5,20.1z"/>
						</g>
						<g id="Oval-10">
							<path class="st4" d="M36.5,54.1c-3.6-9.5-12.4-33.7-12.4-39.9c0-0.1,0-0.1,0-0.2c0-0.1,0-0.1,0-0.2C24.1,6.2,30.3,0,38,0
								s13.9,6.2,13.9,13.8c0,0.1,0,0.1,0,0.2c0,0.1,0,0.1,0,0.2c0,6.3-8.8,30.4-12.4,39.9V25.1c1.3-0.6,2.2-1.8,2.2-3.3
								c0-2-1.6-3.6-3.6-3.6c-2,0-3.6,1.6-3.6,3.6c0,1.5,0.9,2.8,2.2,3.3V54.1z M38,58c0,0,0.6-1.5,1.5-3.8L38,58z"/>
						</g>
						<g id="Oval-6" class="st5">
							<path class="st2" d="M22.6,34.3C22.6,34.3,22.6,34.3,22.6,34.3c-10-2.7-16.8-7.9-16.8-13.9c0-0.8,0.1-1.5,0.3-2.3
								C2.5,22.4,0,29.6,0,37.7c0,13.1,9.1,29.7,21.9,29.7c3.6,0,6.6-7.4,6.6-16.6C28.5,42.3,25.9,35.2,22.6,34.3z"/>
						</g>
						<g id="Oval-6_1_" class="st5">
							<path class="st2" d="M53.3,34.3C53.3,34.3,53.3,34.3,53.3,34.3c10-2.7,16.8-7.9,16.8-13.9c0-0.8-0.1-1.6-0.3-2.3
								c3.7,4.3,6.2,11.5,6.2,19.6c0,13.1-9.1,29.7-21.9,29.7c-3.6,0-6.6-7.4-6.6-16.6C47.4,42.3,50,35.2,53.3,34.3z"/>
						</g>
					</g>
				</g>
				<g class="st6">
					<path class="st0" d="M109.2,27.4h2c1.6,0,2.7-0.4,3.5-1.2c0.8-0.8,1.2-1.8,1.2-3c0-1.3-0.4-2.4-1.1-3.2s-1.9-1.2-3.4-1.2
						c-1.4,0-2.5,0.4-3.4,1.2c-0.9,0.8-1.3,1.9-1.3,3.2h-1.6l0-0.1c0-1.7,0.5-3,1.7-4.1s2.7-1.7,4.6-1.7c1.9,0,3.4,0.5,4.5,1.6
						c1.1,1,1.7,2.5,1.7,4.4c0,1-0.3,2-0.9,2.8s-1.5,1.5-2.6,2c1.3,0.4,2.3,1,3,1.9c0.7,0.9,1,2,1,3.2c0,1.9-0.6,3.4-1.8,4.5
						c-1.2,1.1-2.8,1.6-4.7,1.6c-1.9,0-3.5-0.5-4.8-1.6s-2-2.5-1.9-4.4l0-0.1h1.6c0,1.4,0.5,2.5,1.4,3.3s2.2,1.3,3.7,1.3
						c1.5,0,2.7-0.4,3.5-1.2c0.8-0.8,1.3-1.9,1.3-3.4c0-1.5-0.4-2.6-1.3-3.3s-2.2-1.1-3.8-1.1h-2V27.4z"/>
					<path class="st0" d="M129.4,17.4c0.7,0,1.5,0.1,2.2,0.2s1.3,0.4,1.9,0.7l-0.5,1.4c-0.6-0.3-1.1-0.5-1.7-0.7s-1.2-0.2-2-0.2
						c-1.6,0-2.9,0.6-3.9,1.8c-1,1.2-1.6,2.8-1.6,4.8v1.9c0.6-0.8,1.3-1.4,2.2-1.8s1.9-0.7,3-0.7c1.9,0,3.4,0.7,4.5,2s1.7,3,1.7,5.2
						c0,2.1-0.6,3.8-1.8,5.2c-1.2,1.4-2.8,2.1-4.7,2.1c-2,0-3.6-0.7-4.9-2.2c-1.3-1.5-1.9-3.5-1.9-6v-5.4c0-2.5,0.7-4.5,2.1-6
						S127.4,17.4,129.4,17.4z M128.8,26.4c-1.2,0-2.2,0.3-3.1,0.9c-0.9,0.6-1.5,1.4-1.8,2.4v1.6c0,2,0.5,3.6,1.4,4.8
						c0.9,1.2,2.1,1.8,3.6,1.8c1.4,0,2.6-0.6,3.4-1.7c0.9-1.1,1.3-2.5,1.3-4.1c0-1.7-0.4-3.1-1.2-4.1S130.4,26.4,128.8,26.4z"/>
					<path class="st0" d="M152.1,30.7c0,2.8-0.6,4.9-1.8,6.4s-2.8,2.2-5,2.2c-2.1,0-3.8-0.7-5-2.2c-1.2-1.5-1.8-3.6-1.8-6.4V26
						c0-2.7,0.6-4.9,1.8-6.4s2.8-2.2,5-2.2s3.8,0.7,5,2.2s1.8,3.6,1.8,6.4V30.7z M150.3,25.7c0-2.2-0.4-3.9-1.3-5s-2.1-1.8-3.7-1.8
						s-2.9,0.6-3.7,1.8s-1.3,2.9-1.3,5V31c0,2.2,0.4,3.8,1.3,5c0.9,1.2,2.1,1.8,3.7,1.8s2.9-0.6,3.7-1.8c0.9-1.2,1.3-2.9,1.3-5V25.7
						z"/>
				</g>
				<g>
				</g>
				<g class="st6">
					<path class="st0" d="M116.5,63c0-0.8-0.3-1.5-0.9-2c-0.6-0.5-1.6-1-3.1-1.4c-2.5-0.7-4.5-1.6-5.8-2.6s-1.9-2.4-1.9-4.1
						s0.7-3.2,2.2-4.3s3.4-1.7,5.7-1.7c2.3,0,4.3,0.6,5.7,1.9c1.5,1.2,2.2,2.8,2.1,4.6l0,0.1h-4.1c0-1-0.3-1.8-1-2.4
						c-0.7-0.6-1.6-0.9-2.8-0.9c-1.1,0-2,0.3-2.7,0.8s-0.9,1.2-0.9,1.9c0,0.7,0.3,1.3,1,1.8c0.7,0.5,1.8,1,3.5,1.5
						c2.4,0.7,4.1,1.5,5.3,2.6s1.8,2.5,1.8,4.2c0,1.8-0.7,3.3-2.2,4.3c-1.4,1.1-3.3,1.6-5.7,1.6c-2.3,0-4.4-0.6-6.1-1.8
						s-2.6-2.9-2.5-5l0-0.1h4.2c0,1.3,0.4,2.2,1.2,2.8c0.8,0.6,1.9,0.9,3.2,0.9c1.2,0,2.1-0.2,2.7-0.7S116.5,63.8,116.5,63z"/>
					<path class="st0" d="M138.8,50.6h-6v18h-4.3v-18h-6v-3.3h16.3V50.6z"/>
					<path class="st0" d="M157.8,59.8c0,2.6-0.8,4.8-2.5,6.5c-1.7,1.7-3.8,2.6-6.5,2.6c-2.6,0-4.8-0.9-6.4-2.6s-2.5-3.9-2.5-6.5V56
						c0-2.6,0.8-4.8,2.5-6.5c1.6-1.7,3.8-2.6,6.4-2.6c2.6,0,4.8,0.9,6.5,2.6c1.7,1.7,2.5,3.9,2.5,6.5V59.8z M153.5,56
						c0-1.7-0.4-3-1.2-4.1s-2-1.6-3.4-1.6s-2.6,0.5-3.4,1.6s-1.2,2.4-1.2,4.1v3.9c0,1.7,0.4,3.1,1.2,4.1s1.9,1.6,3.4,1.6
						c1.5,0,2.6-0.5,3.4-1.6s1.2-2.4,1.2-4.1V56z"/>
					<path class="st0" d="M165.4,60.1v8.5h-4.3V47.3h8c2.4,0,4.3,0.6,5.7,1.7c1.4,1.1,2.1,2.7,2.1,4.6c0,1.1-0.3,2.1-0.9,2.8
						s-1.4,1.4-2.5,1.9c1.3,0.4,2.2,1,2.7,1.9c0.6,0.9,0.8,1.9,0.8,3.2V65c0,0.6,0.1,1.2,0.2,1.9c0.2,0.6,0.4,1.1,0.8,1.4v0.3h-4.4
						c-0.4-0.3-0.6-0.8-0.8-1.6s-0.2-1.4-0.2-2.1v-1.5c0-1.1-0.3-1.9-0.9-2.5c-0.6-0.6-1.4-0.9-2.5-0.9H165.4z M165.4,56.8h3.7
						c1.2,0,2.1-0.3,2.7-0.8c0.6-0.5,0.9-1.3,0.9-2.3c0-1-0.3-1.8-0.9-2.3c-0.6-0.6-1.5-0.9-2.6-0.9h-3.8V56.8z"/>
					<path class="st0" d="M185.5,68.6h-4.3V47.3h4.3V68.6z"/>
					<path class="st0" d="M202.9,59.2h-8.8v6.1h10.3v3.3h-14.6V47.3h14.6v3.3h-10.3v5.4h8.8V59.2z"/>
					<path class="st0" d="M218.5,63c0-0.8-0.3-1.5-0.9-2c-0.6-0.5-1.6-1-3.1-1.4c-2.5-0.7-4.5-1.6-5.8-2.6s-1.9-2.4-1.9-4.1
						s0.7-3.2,2.2-4.3c1.5-1.1,3.4-1.7,5.7-1.7c2.3,0,4.3,0.6,5.7,1.9c1.5,1.2,2.2,2.8,2.1,4.6l0,0.1h-4.1c0-1-0.3-1.8-1-2.4
						c-0.7-0.6-1.6-0.9-2.8-0.9c-1.1,0-2,0.3-2.7,0.8s-0.9,1.2-0.9,1.9c0,0.7,0.3,1.3,1,1.8c0.7,0.5,1.8,1,3.5,1.5
						c2.4,0.7,4.1,1.5,5.3,2.6s1.8,2.5,1.8,4.2c0,1.8-0.7,3.3-2.2,4.3c-1.4,1.1-3.3,1.6-5.7,1.6c-2.3,0-4.4-0.6-6.1-1.8
						s-2.6-2.9-2.5-5l0-0.1h4.2c0,1.3,0.4,2.2,1.2,2.8c0.8,0.6,1.9,0.9,3.2,0.9c1.2,0,2.1-0.2,2.7-0.7S218.5,63.8,218.5,63z"/>
				</g>
			</g>
		</g>
	</g>
</g>
</svg>
